<?xml version="1.0" encoding="iso-8859-1"?>
<!-- Uploaded to: SVG Repo, www.svgrepo.com, Generator: SVG Repo Mixer Tools -->
<svg fill="#000000" height="800px" width="800px" version="1.1" id="Layer_1" xmlns="http://www.w3.org/2000/svg" xmlns:xlink="http://www.w3.org/1999/xlink" 
	 viewBox="0 0 463.719 463.719" xml:space="preserve">
<g>
	<path d="M419.702,271.402c-5.257-5.257-11.401-9.096-17.956-11.518c13.36-19.463,11.399-46.354-5.883-63.638
		c-5.341-5.341-11.679-9.323-18.593-11.776c11.575-19.216,9.091-44.596-7.469-61.157c-5.027-5.027-10.87-8.747-17.103-11.181
		l26.801-26.801c19.495-19.495,19.495-51.216,0-70.71c-19.496-19.496-51.216-19.495-70.71,0l-86.405,86.406
		c-2.481-6.326-6.252-12.135-11.201-17.084c-19.495-19.496-51.216-19.496-70.71,0l-72.706,72.706
		c-24.743,24.743-38.369,57.64-38.369,92.631s13.626,67.889,38.369,92.631l83.439,83.438c24.742,24.743,57.64,38.37,92.631,38.37
		s67.889-13.626,92.631-38.37l83.236-83.236C439.197,322.617,439.197,290.897,419.702,271.402z M398.489,320.9l-83.236,83.236
		c-19.077,19.077-44.44,29.583-71.418,29.583s-52.341-10.506-71.418-29.583l-83.439-83.438
		c-19.076-19.077-29.582-44.44-29.582-71.418s10.506-52.341,29.582-71.418l72.706-72.706c7.798-7.798,20.487-7.798,28.285,0
		c3.777,3.777,5.858,8.799,5.858,14.142s-2.081,10.364-5.858,14.142c0,0-56.568,56.569-56.568,56.569l21.213,21.213l56.568-56.568
		C211.184,154.65,330,35.834,330,35.834c7.798-7.798,20.487-7.798,28.285,0c7.798,7.798,7.798,20.486,0,28.285L257.977,164.427
		c0,0-7.98,7.98-7.98,7.98l21.213,21.213l49.093-49.094c7.798-7.797,20.486-7.798,28.284,0c7.798,7.798,7.798,20.487,0,28.285
		l-23.431,23.43c-0.005,0.005-25.663,25.663-25.663,25.663l21.213,21.213l25.658-25.658c3.778-3.777,8.8-5.858,14.142-5.858
		s10.365,2.081,14.142,5.858c7.798,7.798,7.798,20.487,0,28.285l-25.658,25.657l21.213,21.213c3.778-3.777,8.8-5.858,14.142-5.858
		c5.342,0,10.365,2.081,14.143,5.858C406.287,300.413,406.287,313.101,398.489,320.9z"/>
</g>
</svg>